<svg width="25" height="24" viewBox="0 0 25 24" fill="none" xmlns="http://www.w3.org/2000/svg">
<path d="M12.5 1.992C10.6897 1.99234 8.91345 2.48408 7.36072 3.41477C5.80799 4.34546 4.53702 5.68019 3.6834 7.27659C2.82977 8.87298 2.4255 10.6712 2.51371 12.4793C2.60193 14.2874 3.17932 16.0377 4.18429 17.5434C5.18926 19.0492 6.58412 20.2538 8.22008 21.029C9.85603 21.8041 11.6717 22.1206 13.4734 21.9447C15.2752 21.7688 16.9954 21.1071 18.4505 20.0302C19.9057 18.9534 21.0412 17.5017 21.736 15.83C22.077 15.01 21.26 14.186 20.438 14.52C19.0292 15.0907 17.4649 15.1496 16.0172 14.6864C14.5694 14.2233 13.3298 13.2674 12.5137 11.985C11.6977 10.7026 11.3569 9.17478 11.5506 7.66716C11.7443 6.15953 12.4603 4.76747 13.574 3.733L13.651 3.653C14.202 3.023 13.764 2 12.893 2H12.627L12.559 1.994L12.499 1.992H12.5Z" fill="#F2EFEF"/>
</svg>
