<svg width="14" height="15" viewBox="0 0 14 15" fill="none" xmlns="http://www.w3.org/2000/svg">
<path d="M12.4 4C12 2.8 11.2 2 10 1.5V0H9V1.4H8.6C7.5 1.4 6.6 1.8 5.8 2.6L5.4 3L4 2.5C3.7 2.4 3.4 2.3 3 2.3C2.4 2.3 1.8 2.5 1.3 2.9C0.700003 3.3 0.400003 3.8 0.200003 4.3C3.05474e-06 5 3.05474e-06 5.6 0.200003 6.3C0.500003 7 0.800003 7.5 1.3 7.8C0.900003 9.3 1.2 10.6 2.3 11.7C3.1 12.5 4 12.9 5.1 12.9C5.6 12.9 5.9 12.9 6.2 12.8C6.8 13.6 7.6 14.1 8.6 14.1C8.9 14.1 9.3 14.1 9.6 14C10.2 13.8 10.6 13.4 11 12.9C11.4 12.3 11.6 11.8 11.6 11.2C11.6 10.8 11.6 10.5 11.5 10.2L11 8.6L11.6 8.2C12.4 7.4 12.8 6.3 12.7 5.1H14V4H12.4ZM2.7 6.3C2.1 6 1.9 5.6 2.1 5C2.3 4.4 2.7 4.2 3.3 4.4L6.5 5.6C4.9 6.4 3.7 6.6 2.7 6.3ZM9 11.9C8.4 12.1 8 11.9 7.7 11.3C7.4 10.3 7.6 9.1 8.4 7.5L9.6 10.6C9.8 11.3 9.6 11.7 9 11.9ZM10.2 6.6L9.6 5V4.9L9.3 4.6H9.2L7.6 4C8 3.7 8.4 3.5 8.9 3.5C9.4 3.5 9.9 3.7 10.3 4.1C10.7 4.5 10.9 4.9 10.9 5.4C10.7 5.7 10.5 6.2 10.2 6.6Z" fill="white"/>
</svg>
