<?xml version="1.0" standalone="no"?>
<svg xmlns:xlink="http://www.w3.org/1999/xlink" id="wave" style="transform:rotate(0deg); transition: 0.3s" viewBox="0 0 1440 130" version="1.1" xmlns="http://www.w3.org/2000/svg"><defs><linearGradient id="sw-gradient-0" x1="0" x2="0" y1="1" y2="0"><stop stop-color="rgba(101, 31, 158, 0.46)" offset="0%"/><stop stop-color="rgba(240, 138, 172, 0.44)" offset="100%"/></linearGradient></defs><path style="transform:translate(0, 0px); opacity:1" fill="url(#sw-gradient-0)" d="M0,117L12,114.8C24,113,48,108,72,97.5C96,87,120,69,144,71.5C168,74,192,95,216,95.3C240,95,264,74,288,69.3C312,65,336,78,360,84.5C384,91,408,91,432,95.3C456,100,480,108,504,106.2C528,104,552,91,576,91C600,91,624,104,648,101.8C672,100,696,82,720,78C744,74,768,82,792,88.8C816,95,840,100,864,84.5C888,69,912,35,936,36.8C960,39,984,78,1008,88.8C1032,100,1056,82,1080,69.3C1104,56,1128,48,1152,49.8C1176,52,1200,65,1224,78C1248,91,1272,104,1296,110.5C1320,117,1344,117,1368,114.8C1392,113,1416,108,1440,95.3C1464,82,1488,61,1512,52C1536,43,1560,48,1584,47.7C1608,48,1632,43,1656,52C1680,61,1704,82,1716,93.2L1728,104L1728,130L1716,130C1704,130,1680,130,1656,130C1632,130,1608,130,1584,130C1560,130,1536,130,1512,130C1488,130,1464,130,1440,130C1416,130,1392,130,1368,130C1344,130,1320,130,1296,130C1272,130,1248,130,1224,130C1200,130,1176,130,1152,130C1128,130,1104,130,1080,130C1056,130,1032,130,1008,130C984,130,960,130,936,130C912,130,888,130,864,130C840,130,816,130,792,130C768,130,744,130,720,130C696,130,672,130,648,130C624,130,600,130,576,130C552,130,528,130,504,130C480,130,456,130,432,130C408,130,384,130,360,130C336,130,312,130,288,130C264,130,240,130,216,130C192,130,168,130,144,130C120,130,96,130,72,130C48,130,24,130,12,130L0,130Z"/></svg>